<?xml version="1.0" standalone="no"?>
<!DOCTYPE svg PUBLIC "-//W3C//DTD SVG 20010904//EN"
 "http://www.w3.org/TR/2001/REC-SVG-20010904/DTD/svg10.dtd">
<svg version="1.0" xmlns="http://www.w3.org/2000/svg"
 width="200.000000pt" height="178.000000pt" viewBox="0 0 200.000000 178.000000"
 preserveAspectRatio="xMidYMid meet">
<metadata>
Created by potrace 1.15, written by Peter Selinger 2001-2017
</metadata>
<g transform="translate(0.000000,178.000000) scale(0.100000,-0.100000)"
fill="#000000" stroke="none">
<path d="M725 1360 l-280 -280 123 -123 122 -122 -95 -95 c-52 -52 -95 -99
-95 -105 0 -6 110 -120 245 -255 l245 -245 282 282 283 283 -123 123 -122 122
95 95 c52 52 95 99 95 105 0 10 -480 495 -490 495 -3 0 -131 -126 -285 -280z
m438 -68 l147 -147 -50 -50 -50 -49 -103 102 -102 102 -48 -47 -47 -48 225
-225 225 -225 -185 -185 -185 -185 -150 150 -150 150 48 48 48 47 105 -99 106
-100 46 47 47 47 -181 180 c-99 99 -199 202 -221 228 l-41 49 179 179 c98 98
181 179 184 179 3 0 72 -66 153 -148z"/>
</g>
</svg>
